<?xml version="1.0" encoding="UTF-8"?>
<svg xmlns="http://www.w3.org/2000/svg" xmlns:xlink="http://www.w3.org/1999/xlink" width="px" height="px" viewBox="0 0 384 384" version="1.1">
<g id="surface1">
<path style=" stroke:none;fill-rule:nonzero;fill:rgb(0%,0%,0%);fill-opacity:1;" d="M 282 22.5 C 261.164062 22.5 242.058594 29.101562 225.21875 42.125 C 209.074219 54.609375 198.328125 70.511719 192 82.078125 C 185.671875 70.511719 174.925781 54.609375 158.78125 42.125 C 141.941406 29.101562 122.835938 22.5 102 22.5 C 43.851562 22.5 0 70.0625 0 133.136719 C 0 201.277344 54.707031 247.898438 137.527344 318.472656 C 151.589844 330.460938 167.53125 344.046875 184.101562 358.535156 C 186.285156 360.445312 189.089844 361.5 192 361.5 C 194.910156 361.5 197.714844 360.445312 199.898438 358.535156 C 216.46875 344.042969 232.410156 330.460938 246.480469 318.464844 C 329.292969 247.898438 384 201.277344 384 133.136719 C 384 70.0625 340.148438 22.5 282 22.5 Z M 282 22.5 "/>
</g>
</svg>
