<?xml version="1.0" encoding="UTF-8"?>
<svg xmlns="http://www.w3.org/2000/svg" xmlns:xlink="http://www.w3.org/1999/xlink" width="px" height="px" viewBox="0 0 384 384" version="1.1">
<g id="surface1">
<path style=" stroke:none;fill-rule:nonzero;fill:rgb(99.215686%,18.823529%,9.411765%);fill-opacity:1;" d="M 192 360.75 C 189.351562 360.75 186.714844 359.828125 184.59375 357.96875 C 168.226562 343.65625 152.65625 330.382812 138.011719 317.902344 C 55.363281 247.46875 0 200.933594 0 133.136719 C 0 70.492188 44.277344 23.25 102 23.25 C 147.496094 23.25 176.695312 55.035156 192 83.652344 C 207.304688 55.035156 236.503906 23.25 282 23.25 C 339.722656 23.25 384 70.492188 384 133.136719 C 384 200.933594 328.636719 247.46875 245.988281 317.902344 C 231.34375 330.382812 215.773438 343.65625 199.40625 357.96875 C 197.285156 359.828125 194.648438 360.75 192 360.75 Z M 192 360.75 "/>
<path style=" stroke:none;fill-rule:nonzero;fill:rgb(90.196078%,11.764706%,7.843137%);fill-opacity:1;" d="M 199.40625 357.96875 C 215.773438 343.65625 231.34375 330.382812 245.988281 317.902344 C 328.636719 247.46875 384 200.933594 384 133.136719 C 384 70.492188 339.722656 23.25 282 23.25 C 236.503906 23.25 207.304688 55.035156 192 83.652344 L 192 360.75 C 194.648438 360.75 197.285156 359.828125 199.40625 357.96875 Z M 199.40625 357.96875 "/>
</g>
</svg>
